<svg xmlns="http://www.w3.org/2000/svg" xmlns:xlink="http://www.w3.org/1999/xlink" width="64" zoomAndPan="magnify" viewBox="0 0 48 48" height="64" preserveAspectRatio="xMidYMid meet" version="1.2"><defs><clipPath id="56611ad0fb"><path d="M 0.488281 3.070312 L 47.507812 3.070312 L 47.507812 44.214844 L 0.488281 44.214844 Z M 0.488281 3.070312 "/></clipPath></defs><g id="9dc81f4b45"><g clip-rule="nonzero" clip-path="url(#56611ad0fb)"><path style=" stroke:none;fill-rule:nonzero;fill:#e20000;fill-opacity:1;" d="M 45.332031 8.984375 C 42.984375 5.324219 38.535156 3.070312 34.140625 3.3125 C 29.992188 3.539062 26.046875 5.980469 24 9.527344 C 21.953125 5.980469 18.007812 3.539062 13.859375 3.3125 C 9.464844 3.070312 5.015625 5.324219 2.667969 8.984375 C 1.144531 11.355469 0.488281 14.214844 0.613281 17.015625 C 0.941406 24.476562 6.257812 30.679688 11.566406 35.519531 C 15.308594 38.929688 19.496094 41.859375 24 44.207031 C 28.503906 41.859375 32.691406 38.929688 36.433594 35.519531 C 41.742188 30.679688 47.058594 24.476562 47.386719 17.015625 C 47.511719 14.214844 46.855469 11.355469 45.332031 8.984375 Z M 45.332031 8.984375 "/></g></g></svg>